# xmcd CD database file
#
# Track frame offsets:
#	183
#	20795
#	30860
#	48768
#	74375
#	86938
#	103880
#	122573
#	142413
#	159008
#	168235
#	180365
#	194990
#	203128
#	217285
#	240273
#
# Disc length: 3486 seconds
#
# Revision: 0
# Processed by: cddbd v1.4PL0 Copyright (c) Steve Scherf et al.
# Submitted via: Feurio! 1.65 - http://www.feurio.com
#
DISCID=e50d9c10
DTITLE=Henry Vestine - Guitar Gangster
DYEAR=1991
DGENRE=Blues
TTITLE0=Henry's Boogie
TTITLE1=Guitar Picking Fool
TTITLE2=Henry Comes To Austin
TTITLE3=Drunk
TTITLE4=Lookin' Good
TTITLE5=I'm A Whore
TTITLE6=No Phone
TTITLE7=The Stumble
TTITLE8=Oh Henry
TTITLE9=No Care Boogie
TTITLE10=I Wish Your Picture Was You
TTITLE11=Marty Miss You
TTITLE12=Six O'Clock
TTITLE13=Troubles, Troubles
TTITLE14=Death Blues
TTITLE15=Henry's Blues
EXTD=ARD New Rose Records Rose 276
EXTT0=
EXTT1=
EXTT2=
EXTT3=
EXTT4=
EXTT5=
EXTT6=
EXTT7=
EXTT8=
EXTT9=
EXTT10=
EXTT11=
EXTT12=
EXTT13=
EXTT14=
EXTT15=
PLAYORDER=
